<?xml version="1.0" standalone="no"?><!DOCTYPE svg PUBLIC "-//W3C//DTD SVG 1.1//EN" "http://www.w3.org/Graphics/SVG/1.1/DTD/svg11.dtd"><svg t="1645767897217" class="icon" viewBox="0 0 1024 1024" version="1.1" xmlns="http://www.w3.org/2000/svg" p-id="12461" xmlns:xlink="http://www.w3.org/1999/xlink" width="200" height="200"><defs><style type="text/css"></style></defs><path d="M917.67 354H101.33L73 382.33v385.34L106.33 801h804.34L945 766.67V381.33L917.67 354z" fill="#BCBCF7" p-id="12462"></path><path d="M215 253h594v81H215z" fill="#FFFFFF" p-id="12463"></path><path d="M797 253a12 12 0 0 1 12 12v69H215v-69a12 12 0 0 1 12-12h570m0-20H227a32 32 0 0 0-32 32v89h634v-89a32 32 0 0 0-32-32z" fill="#5420F2" p-id="12464"></path><path d="M886 817H776.47v-20H886a54.06 54.06 0 0 0 54-54V408a54.06 54.06 0 0 0-54-54H137a54.06 54.06 0 0 0-54 54v335a54.06 54.06 0 0 0 54 54h113v20H137a74.08 74.08 0 0 1-74-74V408a74.08 74.08 0 0 1 74-74h749a74.08 74.08 0 0 1 74 74v335a74.08 74.08 0 0 1-74 74z" fill="#5420F2" p-id="12465"></path><path d="M245 723h-8a42 42 0 0 1-42-42v-4a42 42 0 0 1 42-42h275v20H237a22 22 0 0 0-22 22v4a22 22 0 0 0 22 22h8zM787 723h-8v-20h8a22 22 0 0 0 22-22v-4a22 22 0 0 0-22-22H512v-20h275a42 42 0 0 1 42 42v4a42 42 0 0 1-42 42z" fill="#5420F2" p-id="12466"></path><path d="M239.5 122h545v232h-545z" fill="#FFFFFF" p-id="12467"></path><path d="M764.5 142v192h-505V142h505m20-20h-545v232h545V122z" fill="#5420F2" p-id="12468"></path><path d="M240 670h545v232H240z" fill="#FFFFFF" p-id="12469"></path><path d="M765 690v192H260V690h505m20-20H240v232h545V670zM880 414v16h-80v-16h80m0-20h-80a20 20 0 0 0-20 20v16a20 20 0 0 0 20 20h80a20 20 0 0 0 20-20v-16a20 20 0 0 0-20-20z" fill="#5420F2" p-id="12470"></path><path d="M704 394l56 0 0 56-56 0 0-56Z" fill="#5420F2" p-id="12471"></path><path d="M724 759.5H300a10 10 0 0 1-10-10 10 10 0 0 1 10-10h424a10 10 0 0 1 10 10 10 10 0 0 1-10 10zM724 832.5H300a10 10 0 0 1-10-10 10 10 0 0 1 10-10h424a10 10 0 0 1 10 10 10 10 0 0 1-10 10z" fill="#5420F2" p-id="12472"></path></svg>