<?xml version="1.0" standalone="no"?><!DOCTYPE svg PUBLIC "-//W3C//DTD SVG 1.1//EN" "http://www.w3.org/Graphics/SVG/1.1/DTD/svg11.dtd"><svg t="1645767558923" class="icon" viewBox="0 0 1024 1024" version="1.1" xmlns="http://www.w3.org/2000/svg" p-id="10611" xmlns:xlink="http://www.w3.org/1999/xlink" width="200" height="200"><defs><style type="text/css"></style></defs><path d="M843.776 350.208H684.032V202.752a12.288 12.288 0 0 0-12.288-12.288H352.256a12.288 12.288 0 0 0-12.288 12.288v147.456H180.224a36.864 36.864 0 0 0-36.864 36.864v344.064a36.864 36.864 0 0 0 36.864 36.864h159.744v73.728a12.288 12.288 0 0 0 12.288 12.288h319.488a12.288 12.288 0 0 0 12.288-12.288V768h159.744a36.864 36.864 0 0 0 36.864-36.864V387.072a36.864 36.864 0 0 0-36.864-36.864zM364.544 215.04h294.912v135.168H364.544z m294.912 614.4H364.544V571.392h294.912z m196.608-98.304a12.288 12.288 0 0 1-12.288 12.288H684.032V571.392h36.864v-24.576H303.104v24.576h36.864v172.032H180.224a12.288 12.288 0 0 1-12.288-12.288V387.072a12.288 12.288 0 0 1 12.288-12.288h663.552a12.288 12.288 0 0 1 12.288 12.288z" fill="#3F44EC" p-id="10612"></path><path d="M856.064 387.072v344.064a12.288 12.288 0 0 1-12.288 12.288H684.032V571.392h36.864v-24.576H303.104v24.576h36.864v172.032H180.224a12.288 12.288 0 0 1-12.288-12.288V387.072a12.288 12.288 0 0 1 12.288-12.288h663.552a12.288 12.288 0 0 1 12.288 12.288z" fill="#67DCD1" p-id="10613"></path><path d="M782.336 387.072h49.152v24.576h-49.152zM720.896 387.072h49.152v24.576h-49.152zM389.12 595.968h245.76v24.576H389.12zM389.12 632.832h245.76v24.576H389.12zM389.12 669.696h245.76v24.576H389.12z" fill="#FDD55B" p-id="10614"></path></svg>